<?xml version="1.0" standalone="no"?><!DOCTYPE svg PUBLIC "-//W3C//DTD SVG 1.1//EN" "http://www.w3.org/Graphics/SVG/1.1/DTD/svg11.dtd"><svg t="1511421892651" class="icon" style="" viewBox="0 0 1024 1024" version="1.1" xmlns="http://www.w3.org/2000/svg" p-id="4607" xmlns:xlink="http://www.w3.org/1999/xlink" width="30" height="30"><defs><style type="text/css"></style></defs><path d="M654.919508 657.476648H222.734302c-19.88505 0-36.017341-16.384-36.017341-36.61229s16.132291-36.612291 36.017341-36.612291h432.185206c19.919374 0 36.017341 16.384 36.017341 36.612291s-16.097966 36.612291-36.017341 36.61229zM438.826905 437.562637H222.734302c-19.88505 0-36.017341-16.418324-36.017341-36.612291s16.132291-36.612291 36.017341-36.61229h216.092603c19.873609 0 36.017341 16.418324 36.017341 36.61229s-16.132291 36.612291-36.017341 36.612291z m148.554369 0a35.594011 35.594011 0 0 1-25.456983-10.743419 37.058503 37.058503 0 0 1 0-51.817833L919.843754 10.75486a35.525363 35.525363 0 0 1 50.925408 0 37.069944 37.069944 0 0 1 0 51.829274L612.86114 426.819218a35.468156 35.468156 0 0 1-25.468425 10.743419zM798.931665 1024H150.711061C91.136 1024 42.659039 974.664939 42.659039 914.037274V181.002011c0-60.639106 48.476961-109.951285 108.052022-109.951285h504.208447c19.919374 0 36.017341 16.418324 36.017341 36.612291s-16.097966 36.612291-36.017341 36.61229H150.711061c-19.850726 0-36.017341 16.452648-36.01734 36.612291v733.046704c0 20.239732 16.178056 36.612291 36.01734 36.61229H798.931665c19.873609 0 36.017341-16.418324 36.017341-36.61229V327.611352c0-20.228291 16.097966-36.612291 36.01734-36.612291s36.017341 16.418324 36.017341 36.612291v586.425922C907.029453 974.664939 858.552492 1024 798.931665 1024z" p-id="4608" fill="#9c9c9c"></path></svg>