<?xml version="1.0" standalone="no"?><!DOCTYPE svg PUBLIC "-//W3C//DTD SVG 1.1//EN" "http://www.w3.org/Graphics/SVG/1.1/DTD/svg11.dtd"><svg t="1511163998707" class="icon" style="" viewBox="0 0 1024 1024" version="1.1" xmlns="http://www.w3.org/2000/svg" p-id="2591" xmlns:xlink="http://www.w3.org/1999/xlink" width="30" height="30"><defs><style type="text/css"></style></defs><path d="M735.97634 314.80316 411.375796 639.40492 288.023624 516.028422c-13.08264-13.08264-34.342539-13.08264-47.426395 0-13.08264 13.08264-13.08264 34.342539 0 47.426395L387.638272 710.495861c6.565646 6.589973 15.151585 9.859416 23.737524 9.859416 8.585939 0 17.171878-3.269444 23.737524-9.810764l348.290632-348.243196c13.083857-13.08264 13.083857-34.366865 0-47.450722C770.320095 301.767955 749.060196 301.720519 735.97634 314.80316zM511.999982 9.585746c-277.847985 0-503.099037 225.251052-503.099037 503.099037S234.151997 1015.785036 511.999982 1015.785036s503.099037-225.251052 503.099037-503.099037S789.847967 9.585746 511.999982 9.585746zM511.999982 948.733464c-240.811317 0-436.024355-195.237364-436.024355-436.047465 0-240.835644 195.213037-436.024355 436.024355-436.024355s436.000029 195.188711 436.000029 436.024355C948.001227 753.497317 752.811299 948.733464 511.999982 948.733464z" p-id="2592" fill="#e85353"></path></svg>