<?xml version="1.0" standalone="no"?><!DOCTYPE svg PUBLIC "-//W3C//DTD SVG 1.1//EN" "http://www.w3.org/Graphics/SVG/1.1/DTD/svg11.dtd"><svg t="1516157346873" class="icon" style="" viewBox="0 0 1024 1024" version="1.1" xmlns="http://www.w3.org/2000/svg" p-id="9256" xmlns:xlink="http://www.w3.org/1999/xlink" width="81" height="81"><defs><style type="text/css"></style></defs><path d="M914.285714 512c0-222.213486-180.035657-402.285714-402.285714-402.285714S109.714286 289.786514 109.714286 512s180.035657 402.285714 402.285714 402.285714S914.285714 734.213486 914.285714 512zM164.571429 512c0-37.035886 5.9648-72.6784 16.714971-106.177829 169.713371-3.856457 320.786286-71.786057 423.356343-177.250743 60.178286 61.677714 136.535771 110.785829 224.071314 141.357714C848.285257 413.357714 859.428571 461.357714 859.428571 512c0 191.572114-155.856457 347.428571-347.428571 347.428571S164.571429 703.572114 164.571429 512z" p-id="9257" fill="#ea524e"></path><path d="M381.714286 406.286629c-38.999771 0-70.535314 31.572114-70.535314 70.464 0 38.999771 31.535543 70.571886 70.535314 70.571886 29.856914 0 55.107657-18.7136 65.285486-44.893257l-51.214629-25.678629 51.214629-25.536C436.821943 424.892343 411.5712 406.286629 381.714286 406.286629z" p-id="9258" fill="#ea524e"></path><path d="M647.572114 547.536457c29.7856 0 55.107657-18.678857 65.285486-44.964571l-51.285943-25.570743 51.285943-25.607314c-10.177829-26.249143-35.499886-44.893257-65.285486-44.893257-38.999771 0-70.535314 31.572114-70.535314 70.500571C577.034971 515.964343 608.570514 547.536457 647.572114 547.536457z" p-id="9259" fill="#ea524e"></path><path d="M993.464686 442.143086C968.643657 194.143086 762.177829 0 512 0S55.356343 194.143086 30.535314 442.106514C12.785371 448.714971 0 465.428114 0 485.392457l0 89.749943C0 600.8576 20.964571 621.714286 46.714514 621.714286c25.786514 0 46.749257-20.856686 46.749257-46.571886l0-89.749943c0-17.963886-10.570971-33.071543-25.536-40.821029C91.428571 215.643429 281.607314 36.571429 512 36.571429s420.571429 179.072 444.072229 407.963429c-14.965029 7.749486-25.536 22.893714-25.536 40.8576l0 89.749943c0 19.642514 12.286171 36.2496 29.500343 43.106743-42.784914 182.606629-193.000229 323.893029-380.2496 353.678629C571.035429 959.5008 552.213943 950.857143 530.285714 950.857143c-30.2848 0-54.857143 16.393143-54.857143 36.571429 0 20.214857 24.572343 36.571429 54.857143 36.571429 29.143771 0 52.785371-15.213714 54.535314-34.357029 193.857829-31.749486 349.178514-178.570971 393.214171-368.071314C1003.428571 621.1072 1024 600.572343 1024 575.1424l0-89.749943C1024 465.428114 1011.214629 448.714971 993.464686 442.143086z" p-id="9260" fill="#ea524e"></path></svg>