<?xml version="1.0" standalone="no"?><!DOCTYPE svg PUBLIC "-//W3C//DTD SVG 1.1//EN" "http://www.w3.org/Graphics/SVG/1.1/DTD/svg11.dtd"><svg t="1511161310330" class="icon" style="" viewBox="0 0 1024 1024" version="1.1" xmlns="http://www.w3.org/2000/svg" p-id="1868" xmlns:xlink="http://www.w3.org/1999/xlink" width="30" height="30"><defs><style type="text/css"></style></defs><path d="M844.068571 197.558857a22.308571 22.308571 0 0 0-15.725714-6.582857c-303.689143 0-550.765714 247.076571-550.765714 550.765714a22.308571 22.308571 0 1 0 44.617143 0 506.660571 506.660571 0 0 1 506.148571-506.148571 22.308571 22.308571 0 0 0 15.725714-38.034286z m56.832 43.446857L779.190857 362.788571a22.308571 22.308571 0 1 0 31.524572 31.451429l121.709714-121.709714a81.700571 81.700571 0 0 0 0-115.273143L810.788571 35.474286a22.308571 22.308571 0 0 0-31.524571 31.524571l121.709714 121.782857a37.010286 37.010286 0 0 1 0 52.224z m51.492572 315.977143a22.381714 22.381714 0 0 0-22.381714 22.381714v251.977143a88.722286 88.722286 0 0 1-88.722286 88.576h-666.331429c-49.005714 0-88.649143-39.643429-88.795428-88.576V164.717714c0.146286-48.932571 39.789714-88.502857 88.722285-88.576H451.291429a22.381714 22.381714 0 1 0 0-44.763428H174.811429A133.632 133.632 0 0 0 41.398857 164.790857v666.550857a133.632 133.632 0 0 0 133.485714 133.412572h666.331429a133.632 133.632 0 0 0 133.558857-133.412572V579.291429a22.381714 22.381714 0 0 0-22.381714-22.381715z" p-id="1869" fill="#e85353"></path></svg>